<?xml version="1.0" standalone="no"?>
<!DOCTYPE svg PUBLIC "-//W3C//DTD SVG 20010904//EN"
 "http://www.w3.org/TR/2001/REC-SVG-20010904/DTD/svg10.dtd">
<svg version="1.0" xmlns="http://www.w3.org/2000/svg"
 width="192.000000pt" height="192.000000pt" viewBox="0 0 192.000000 192.000000"
 preserveAspectRatio="xMidYMid meet">
<metadata>
Created by potrace 1.14, written by Peter Selinger 2001-2017
</metadata>
<g transform="translate(0.000000,192.000000) scale(0.100000,-0.100000)"
fill="#000000" stroke="none">
<path d="M875 1898 c-273 -22 -504 -148 -673 -365 -217 -281 -256 -676 -97
-993 118 -237 329 -415 580 -489 92 -27 132 -33 241 -36 106 -3 233 14 321 43
68 23 203 91 243 122 l25 20 -55 -6 c-30 -4 -62 -8 -70 -10 -8 -1 -47 -3 -87
-3 -51 -1 -76 -6 -87 -17 -15 -14 -16 -14 -16 0 0 11 -9 16 -27 17 -16 0 -35
2 -43 3 -8 2 -42 7 -75 11 -65 8 -194 46 -235 70 -29 16 -23 19 13 6 73 -28
365 -49 373 -27 9 28 15 81 20 206 l6 135 -103 0 c-100 1 -211 9 -274 20 -38
7 -196 46 -214 53 -11 4 -13 -3 -7 -38 4 -24 9 -64 12 -88 3 -24 9 -55 15 -69
5 -13 5 -22 0 -19 -5 3 -23 52 -40 108 -18 57 -34 108 -36 115 -2 7 -23 22
-45 33 -48 25 -48 35 -1 19 18 -6 34 -10 36 -8 2 2 0 32 -4 67 -11 93 -3 294
15 353 3 11 -11 22 -46 39 -27 13 -48 25 -47 27 2 2 25 -3 51 -11 35 -11 48
-11 51 -3 2 7 14 41 25 77 26 82 70 176 115 245 l35 55 -30 15 c-40 21 -38 26
5 12 30 -9 38 -7 56 9 22 19 22 19 10 -3 -11 -23 -11 -23 46 -25 102 -2 186 2
256 13 l68 11 -6 32 c-4 17 -9 40 -11 51 -4 16 -3 17 5 5 6 -8 11 -22 11 -30
0 -8 7 -24 15 -34 14 -18 16 -18 79 13 157 77 126 188 -68 239 -135 35 -198
41 -331 30z"/>
<path d="M1469 1732 c10 -19 10 -32 -3 -69 -13 -38 -87 -83 -191 -114 -56 -17
-55 -15 -40 -67 15 -51 41 -180 50 -252 4 -25 9 -47 11 -49 9 -9 160 41 231
76 101 49 101 50 68 136 -16 40 -41 96 -57 126 -15 29 -28 56 -28 59 0 12 100
-130 127 -180 21 -39 29 -46 40 -36 23 18 53 84 53 114 0 40 -111 164 -219
246 -42 32 -56 35 -42 10z"/>
<path d="M781 1537 c-30 -37 -121 -302 -121 -353 0 -19 7 -24 48 -31 65 -11
428 -9 477 3 46 11 45 7 31 164 -11 126 -13 142 -20 176 l-7 30 -122 -1 c-67
-1 -153 4 -192 12 -85 16 -80 16 -94 0z"/>
<path d="M1800 1359 c0 -23 -23 -65 -55 -101 -29 -32 -29 -38 3 -158 2 -8 5
-66 8 -129 2 -63 6 -116 8 -118 5 -6 80 68 100 98 30 47 35 83 21 163 -19 110
-84 298 -85 245z"/>
<path d="M1598 1164 c-39 -20 -159 -55 -268 -78 l-25 -5 3 -192 c1 -106 4
-195 7 -197 17 -17 340 83 365 113 12 14 15 189 5 250 -3 17 -7 46 -11 65 -7
49 -14 70 -22 69 -4 -1 -28 -12 -54 -25z"/>
<path d="M645 1116 c-10 -30 -22 -172 -24 -281 -2 -100 0 -124 13 -134 9 -8
16 -11 16 -8 0 3 17 1 38 -4 70 -16 187 -24 355 -22 92 0 173 3 181 6 11 4 13
38 11 179 -1 95 -3 184 -4 198 l-1 25 -163 0 c-174 1 -236 7 -348 34 -49 13
-72 15 -74 7z"/>
<path d="M1797 715 l-79 -42 -33 -81 c-29 -71 -100 -202 -110 -202 -2 0 7 28
21 61 25 65 65 199 59 199 -2 0 -41 -9 -87 -20 -102 -24 -127 -28 -203 -36
-33 -4 -61 -8 -63 -9 -3 -3 -8 -30 -16 -95 -7 -54 -12 -83 -31 -174 -8 -38
-12 -72 -10 -76 5 -8 10 -7 120 10 150 24 273 78 344 149 44 44 110 168 145
275 14 44 25 80 24 81 -2 1 -38 -17 -81 -40z"/>
</g>
</svg>
